<?xml version="1.0" encoding="UTF-8"?>
<svg width="1000px" height="1000px" viewBox="0 0 1000 1000" version="1.1" xmlns="http://www.w3.org/2000/svg" xmlns:xlink="http://www.w3.org/1999/xlink">
    <title>explainer-videos-green-white copy 2</title>
    <g id="Page-1" stroke="none" stroke-width="1" fill="none" fill-rule="evenodd">
        <g id="explainer-videos-green-white-copy-2">
            <circle id="Oval-Copy" fill="#312849" cx="500" cy="500" r="500"></circle>
            <g id="rocket-solid" transform="translate(206.000000, 269.000000)" fill="#45BF87" fill-rule="nonzero">
                <path d="M157.6,384.9 L126.7,354 C118.2,345.5 115.2,333.2 119,321.8 C122,312.9 126,301.3 130.8,288 L25,288 C16.4,288 8.4,283.4 4.1,275.9 C-0.2,268.4 -0.1,259.2 4.3,251.8 L56.8,163.3 C69.8,141.4 93.3,128 118.7,128 L201,128 C203.4,124 205.8,120.3 208.2,116.7 C290.1,-4.1 412.1,-8.1 484.9,5.3 C496.5,7.4 505.5,16.5 507.7,28.1 C521.1,101 517,222.9 396.3,304.8 C392.8,307.2 389,309.6 385,312 L385,394.3 C385,419.7 371.6,443.3 349.7,456.2 L261.2,508.7 C253.8,513.1 244.6,513.2 237.1,508.9 C229.6,504.6 225,496.7 225,488 L225,380.8 C210.9,385.7 198.6,389.7 189.3,392.7 C178.1,396.3 165.9,393.2 157.5,384.9 L157.6,384.9 Z M385,168 C407.09139,168 425,150.09139 425,128 C425,105.90861 407.09139,88 385,88 C362.90861,88 345,105.90861 345,128 C345,150.09139 362.90861,168 385,168 L385,168 Z" id="Shape"></path>
            </g>
        </g>
    </g>
</svg>