<?xml version="1.0" encoding="UTF-8"?>
<svg width="1000px" height="1000px" viewBox="0 0 1000 1000" version="1.1" xmlns="http://www.w3.org/2000/svg" xmlns:xlink="http://www.w3.org/1999/xlink">
    <title>getting-started-white copy 2</title>
    <g id="Page-1" stroke="none" stroke-width="1" fill="none" fill-rule="evenodd">
        <g id="getting-started-white-copy-2">
            <circle id="Oval-Copy-3" fill="#312849" cx="500" cy="500" r="500"></circle>
            <g id="circle-play-regular" transform="translate(244.000000, 244.000000)" fill="#45BF87" fill-rule="nonzero">
                <path d="M464,256 C464,141.124772 370.875228,48 256,48 C141.124772,48 48,141.124772 48,256 C48,370.875228 141.124772,464 256,464 C370.875228,464 464,370.875228 464,256 Z M0,256 C0,114.615104 114.615104,0 256,0 C397.384896,0 512,114.615104 512,256 C512,397.384896 397.384896,512 256,512 C114.615104,512 0,397.384896 0,256 Z M188.3,147.1 C195.9,142.9 205.1,143 212.6,147.6 L356.6,235.6 C363.7,240 368.1,247.7 368.1,256.1 C368.1,264.5 363.7,272.2 356.6,276.6 L212.6,364.6 C205.2,369.1 195.9,369.3 188.3,365.1 C180.7,360.9 176,352.9 176,344.2 L176,168 C176,159.3 180.7,151.3 188.3,147.1 Z" id="Shape"></path>
            </g>
        </g>
    </g>
</svg>