<?xml version="1.0" encoding="UTF-8"?>
<svg width="1000px" height="1000px" viewBox="0 0 1000 1000" version="1.1" xmlns="http://www.w3.org/2000/svg" xmlns:xlink="http://www.w3.org/1999/xlink">
    <title>how-to-guides-green-white copy 2</title>
    <g id="Page-1" stroke="none" stroke-width="1" fill="none" fill-rule="evenodd">
        <g id="how-to-guides-green-white-copy-2">
            <circle id="Oval-Copy-2" fill="#312849" cx="500" cy="500" r="500"></circle>
            <g id="lightbulb-regular" transform="translate(324.000000, 244.000000)" fill="#45BF87" fill-rule="nonzero">
                <path d="M281.2,248.9 C295.6,228.3 304,203.2 304,176 C304,105.3 246.7,48 176,48 C105.3,48 48,105.3 48,176 C48,203.2 56.4,228.3 70.8,248.9 C74.5,254.2 78.9,260.2 83.6,266.6 L83.6,266.6 C96.5,284.3 111.9,305.5 123.4,326.4 C133.8,345.4 139.1,365.2 141.7,383.9 L93,383.9 C90.8,371.9 87.1,360.2 81.2,349.4 C71.3,331.4 59,314.5 46.7,297.6 L46.7,297.6 L46.7,297.6 C41.5,290.5 36.3,283.4 31.3,276.2 C11.6,247.9 0,213.3 0,176 C0,78.8 78.8,0 176,0 C273.2,0 352,78.8 352,176 C352,213.3 340.4,247.9 320.6,276.3 C315.6,283.5 310.4,290.6 305.2,297.7 L305.2,297.7 L305.2,297.7 C292.9,314.5 280.6,331.4 270.7,349.5 C264.8,360.3 261.1,372 258.9,384 L210.4,384 C213,365.3 218.3,345.4 228.7,326.5 C240.2,305.6 255.6,284.4 268.5,266.7 L268.5,266.7 L268.5,266.7 L268.5,266.7 C273.2,260.3 277.5,254.3 281.2,249 L281.2,248.9 Z M176,128 C149.5,128 128,149.5 128,176 C128,184.8 120.8,192 112,192 C103.2,192 96,184.8 96,176 C96,131.8 131.8,96 176,96 C184.8,96 192,103.2 192,112 C192,120.8 184.8,128 176,128 Z M176,512 C131.8,512 96,476.2 96,432 L96,416 L256,416 L256,432 C256,476.2 220.2,512 176,512 Z" id="Shape"></path>
            </g>
        </g>
    </g>
</svg>